<svg width="343" height="60" viewBox="0 0 343 60" fill="none" xmlns="http://www.w3.org/2000/svg">
<g>
<rect width="343" height="60" fill="#91D6FD" />
<mask id="mask0_3746_714578" style="mask-type:alpha" maskUnits="userSpaceOnUse" x="0" y="0" width="343" height="60">
<rect width="343" height="60" fill="white" />
</mask>
<g mask="url(#mask0_3746_714578)">
<g filter="url(#filter0_f_3746_714578)">
<circle cx="83.5" cy="5.5" r="52.5" fill="#CDEFFF"/>
</g>
<g filter="url(#filter1_f_3746_714578)">
<circle cx="159.5" cy="46.5" r="52.5" fill="#C1E8FC"/>
</g>
<g filter="url(#filter2_f_3746_714578)">
<circle cx="232.5" cy="0.5" r="46.5" fill="#BEEAFF"/>
</g>
<g filter="url(#filter3_f_3746_714578)">
<circle cx="324" cy="-5" r="31" fill="#CEEFFF"/>
</g>
<g filter="url(#filter4_f_3746_714578)">
<circle cx="290" cy="70" r="48" fill="#C1EBFF"/>
</g>
<path opacity="0.75" d="M19.4805 -25C38.5684 2.52538 52.4547 27.2151 53.5381 33.6984C53.9061 35.7262 54.0165 37.754 53.9981 39.7453C53.9981 50.5419 49.0304 60.5896 41.4684 69.5411C41.3196 69.6715 41.1749 69.8019 41.0325 69.9303C40.8755 70.0718 40.7212 70.2109 40.5669 70.3449C34.2401 77.7166 26.3165 84.3307 18.271 90H-61V-25H19.4805Z" fill="#0A9AF2"/>
<path d="M343 165C343 165 323.367 145.171 306.636 124.388C297.659 113.226 277.003 94.172 277.003 78.7258C276.674 59.155 305.201 49.7542 320.704 43.2854C336.207 36.8165 343 29 343 29V165Z" fill="#DCF0FD" fill-opacity="0.5"/>
</g>
</g>
<defs>
<filter id="filter0_f_3746_714578" x="6" y="-72" width="155" height="155" filterUnits="userSpaceOnUse" color-interpolation-filters="sRGB">
<feFlood flood-opacity="0" result="BackgroundImageFix"/>
<feBlend mode="normal" in="SourceGraphic" in2="BackgroundImageFix" result="shape"/>
<feGaussianBlur stdDeviation="12.5" result="effect1_foregroundBlur_3746_714578"/>
</filter>
<filter id="filter1_f_3746_714578" x="82" y="-31" width="155" height="155" filterUnits="userSpaceOnUse" color-interpolation-filters="sRGB">
<feFlood flood-opacity="0" result="BackgroundImageFix"/>
<feBlend mode="normal" in="SourceGraphic" in2="BackgroundImageFix" result="shape"/>
<feGaussianBlur stdDeviation="12.5" result="effect1_foregroundBlur_3746_714578"/>
</filter>
<filter id="filter2_f_3746_714578" x="151" y="-81" width="163" height="163" filterUnits="userSpaceOnUse" color-interpolation-filters="sRGB">
<feFlood flood-opacity="0" result="BackgroundImageFix"/>
<feBlend mode="normal" in="SourceGraphic" in2="BackgroundImageFix" result="shape"/>
<feGaussianBlur stdDeviation="17.5" result="effect1_foregroundBlur_3746_714578"/>
</filter>
<filter id="filter3_f_3746_714578" x="243" y="-86" width="162" height="162" filterUnits="userSpaceOnUse" color-interpolation-filters="sRGB">
<feFlood flood-opacity="0" result="BackgroundImageFix"/>
<feBlend mode="normal" in="SourceGraphic" in2="BackgroundImageFix" result="shape"/>
<feGaussianBlur stdDeviation="25" result="effect1_foregroundBlur_3746_714578"/>
</filter>
<filter id="filter4_f_3746_714578" x="207" y="-13" width="166" height="166" filterUnits="userSpaceOnUse" color-interpolation-filters="sRGB">
<feFlood flood-opacity="0" result="BackgroundImageFix"/>
<feBlend mode="normal" in="SourceGraphic" in2="BackgroundImageFix" result="shape"/>
<feGaussianBlur stdDeviation="17.5" result="effect1_foregroundBlur_3746_714578"/>
</filter>
</defs>
</svg>
